<svg xmlns="http://www.w3.org/2000/svg" viewBox="0 0 66.000000 66.000000" width="66.000000" height="66.000000">
<g transform="translate(0.000000,66.000000) scale(0.100000,-0.100000)"><path fill="#ffffff" d="M40 530 l0 -90 90 0 90 0 0 90 0 90 -90 0 -90 0 0 -90z M240 530 l0
-90 90 0 90 0 0 90 0 90 -90 0 -90 0 0 -90z M440 538 l0 -83 42 42 c33 34 40
45 30 55 -21 21 -13 28 28 28 l40 0 0 -40 c0 -41 -7 -49 -28 -28 -10 10 -21 3
-55 -30 l-42 -42 83 0 82 0 0 90 0 90 -90 0 -90 0 0 -82z M40 330 l0 -90 90 0
90 0 0 40 0 40 -50 0 c-43 0 -50 -3 -50 -20 0 -27 -12 -25 -40 5 l-23 25 23
25 c28 30 40 32 40 5 0 -17 7 -20 50 -20 l50 0 0 40 0 40 -90 0 -90 0 0 -90z
M240 380 l0 -40 43 0 c37 0 48 6 82 40 l39 40 -82 0 -82 0 0 -40z M440 380 l0
-40 50 0 c43 0 50 3 50 20 0 27 12 25 40 -5 l23 -25 -23 -25 c-28 -30 -40 -32
-40 -5 0 17 -7 20 -50 20 l-50 0 0 -40 0 -40 90 0 90 0 0 90 0 90 -90 0 -90 0
0 -40z M385 370 l-29 -30 32 0 c29 0 32 3 32 30 0 17 -1 30 -3 30 -2 0 -16
-13 -32 -30z M240 288 l0 -32 30 29 c17 16 30 30 30 32 0 2 -13 3 -30 3 -27 0
-30 -3 -30 -32z M295 280 l-39 -40 82 0 82 0 0 40 0 40 -43 0 c-37 0 -48 -6
-82 -40z M40 130 l0 -90 90 0 90 0 0 82 0 83 -42 -42 c-33 -34 -40 -45 -30
-55 21 -21 13 -28 -28 -28 l-40 0 0 40 c0 41 7 49 28 28 10 -10 21 -3 55 30
l42 42 -83 0 -82 0 0 -90z M240 130 l0 -90 90 0 90 0 0 90 0 90 -90 0 -90 0 0
-90z M440 130 l0 -90 90 0 90 0 0 90 0 90 -90 0 -90 0 0 -90z"/><path fill="#000000" d="M20 330 l0 -310 310 0 310 0 0 310 0 310 -310 0 -310 0 0 -310z m200
200 l0 -90 -90 0 -90 0 0 90 0 90 90 0 90 0 0 -90z m200 0 l0 -90 -90 0 -90 0
0 90 0 90 90 0 90 0 0 -90z m200 0 l0 -90 -82 0 c-95 0 -118 -13 -118 -67 0
-18 5 -33 10 -33 6 0 10 18 10 40 l0 40 90 0 90 0 0 -90 0 -90 -90 0 -90 0 0
40 c0 22 -4 40 -10 40 -5 0 -10 -18 -10 -40 l0 -40 -82 0 c-111 0 -118 -7
-118 -117 l0 -83 -90 0 -90 0 0 90 0 90 82 0 c95 0 118 13 118 67 0 18 -4 33
-10 33 -5 0 -10 -18 -10 -40 l0 -40 -90 0 -90 0 0 90 0 90 90 0 90 0 0 -40 c0
-22 5 -40 10 -40 6 0 10 18 10 40 l0 40 82 0 c111 0 118 7 118 117 l0 83 90 0
90 0 0 -90z m-200 -400 l0 -90 -90 0 -90 0 0 90 0 90 90 0 90 0 0 -90z m200 0
l0 -90 -90 0 -90 0 0 90 0 90 90 0 90 0 0 -90z"/><path fill="#0000ff" d="M82 653 c27 -2 69 -2 96 0 26 2 4 3 -48 3 -52 0 -74 -1 -48 -3z M283
653 c26 -2 68 -2 95 0 26 2 4 3 -48 3 -52 0 -74 -1 -47 -3z M4 530 c0 -52 1
-74 3 -47 2 26 2 68 0 95 -2 26 -3 4 -3 -48z M500 572 c0 -4 5 -13 12 -20 10
-10 -9 -34 -87 -112 l-100 -100 -102 0 c-96 0 -103 1 -103 20 0 27 -12 25 -40
-5 l-23 -25 23 -25 c28 -30 40 -32 40 -5 0 19 7 20 92 20 l93 0 -92 -92 c-73
-73 -95 -90 -105 -80 -21 21 -28 13 -28 -28 l0 -40 40 0 c41 0 49 7 28 28 -10
10 9 34 87 112 l100 100 102 0 c96 0 103 -1 103 -20 0 -27 12 -25 40 5 l23 25
-23 25 c-28 30 -40 32 -40 5 0 -19 -7 -20 -92 -20 l-93 0 92 92 c73 73 95 90
105 80 21 -21 28 -13 28 28 l0 40 -40 0 c-22 0 -40 -4 -40 -8z M654 130 c0
-52 1 -74 3 -47 2 26 2 68 0 95 -2 26 -3 4 -3 -48z M283 3 c26 -2 68 -2 95 0
26 2 4 3 -48 3 -52 0 -74 -1 -47 -3z M483 3 c26 -2 68 -2 95 0 26 2 4 3 -48 3
-52 0 -74 -1 -47 -3z"/></g>
</svg>
