<svg xmlns="http://www.w3.org/2000/svg" viewBox="0 0 56.000000 56.000000" width="56.000000" height="56.000000">
<g transform="translate(0.000000,56.000000) scale(0.100000,-0.100000)"><path fill="#000000" d="M210 550 c0 -6 28 -10 65 -10 37 0 65 4 65 10 0 6 -28 10 -65 10 -37
0 -65 -4 -65 -10z M30 285 l0 -245 245 0 245 0 0 245 0 245 -245 0 -245 0 0
-245z m160 160 l0 -75 -75 0 -75 0 0 75 0 75 75 0 75 0 0 -75z m160 0 l0 -75
-75 0 -75 0 0 75 0 75 75 0 75 0 0 -75z m160 0 l0 -75 -75 0 -75 0 0 75 0 75
75 0 75 0 0 -75z m-320 -160 l0 -75 -75 0 -75 0 0 75 0 75 75 0 75 0 0 -75z
m160 0 l0 -75 -75 0 -75 0 0 75 0 75 75 0 75 0 0 -75z m160 0 l0 -75 -75 0
-75 0 0 75 0 75 75 0 75 0 0 -75z m-320 -160 l0 -75 -75 0 -75 0 0 75 0 75 75
0 75 0 0 -75z m160 0 l0 -75 -75 0 -75 0 0 75 0 75 75 0 75 0 0 -75z m160 0
l0 -75 -75 0 -75 0 0 75 0 75 75 0 75 0 0 -75z M50 445 l0 -65 65 0 65 0 0 65
0 65 -65 0 -65 0 0 -65z M210 285 l0 -65 65 0 65 0 0 65 0 65 -65 0 -65 0 0
-65z M370 285 l0 -65 65 0 65 0 0 65 0 65 -65 0 -65 0 0 -65z M210 125 l0 -65
65 0 65 0 0 65 0 65 -65 0 -65 0 0 -65z M370 125 l0 -65 65 0 65 0 0 65 0 65
-65 0 -65 0 0 -65z M530 445 c0 -37 4 -65 10 -65 6 0 10 28 10 65 0 37 -4 65
-10 65 -6 0 -10 -28 -10 -65z M0 285 c0 -37 4 -65 10 -65 6 0 10 28 10 65 0
37 -4 65 -10 65 -6 0 -10 -28 -10 -65z M50 20 c0 -6 28 -10 65 -10 37 0 65 4
65 10 0 6 -28 10 -65 10 -37 0 -65 -4 -65 -10z"/><path fill="#ffffff" d="M40 445 l0 -75 75 0 75 0 0 75 0 75 -75 0 -75 0 0 -75z m140 0 l0
-65 -65 0 -65 0 0 65 0 65 65 0 65 0 0 -65z M200 445 l0 -75 75 0 75 0 0 75 0
75 -75 0 -75 0 0 -75z M360 445 l0 -75 75 0 75 0 0 75 0 75 -75 0 -75 0 0 -75z
M40 285 l0 -75 75 0 75 0 0 75 0 75 -75 0 -75 0 0 -75z M200 285 l0 -75 75 0
75 0 0 75 0 75 -75 0 -75 0 0 -75z m140 0 l0 -65 -65 0 -65 0 0 65 0 65 65 0
65 0 0 -65z M360 285 l0 -75 75 0 75 0 0 75 0 75 -75 0 -75 0 0 -75z m140 0
l0 -65 -65 0 -65 0 0 65 0 65 65 0 65 0 0 -65z M40 125 l0 -75 75 0 75 0 0 75
0 75 -75 0 -75 0 0 -75z M200 125 l0 -75 75 0 75 0 0 75 0 75 -75 0 -75 0 0
-75z m140 0 l0 -65 -65 0 -65 0 0 65 0 65 65 0 65 0 0 -65z M360 125 l0 -75
75 0 75 0 0 75 0 75 -75 0 -75 0 0 -75z m140 0 l0 -65 -65 0 -65 0 0 65 0 65
65 0 65 0 0 -65z"/></g>
</svg>
